<svg xmlns="http://www.w3.org/2000/svg" viewBox="0 0 64 64" id="chemistry">
  <path d="M9 20h3a1 1 0 0 0 0-2H9a1 1 0 0 0 0 2zM9 27h7a1 1 0 0 0 0-2H9a1 1 0 0 0 0 2zM9 34H22a1 1 0 0 0 0-2H9a1 1 0 0 0 0 2zM26 39H9a1 1 0 0 0 0 2H26a1 1 0 0 0 0-2zM26 46H9a1 1 0 0 0 0 2H26a1 1 0 0 0 0-2zM55 18H52a1 1 0 0 0 0 2h3a1 1 0 0 0 0-2zM55 25H49a1 1 0 0 0 0 2h6a1 1 0 0 0 0-2zM55 32H42a1 1 0 0 0 0 2H55a1 1 0 0 0 0-2zM55 39H38a1 1 0 0 0 0 2H55a1 1 0 0 0 0-2zM55 46H38a1 1 0 0 0 0 2H55a1 1 0 0 0 0-2z"></path>
  <path d="M57,10H45.26a15,15,0,0,0-26.52,0H7a5,5,0,0,0-5,5V59a3,3,0,0,0,3,3H59a3,3,0,0,0,3-3V15A5,5,0,0,0,57,10ZM25.11,23.55,29,15.76V11H28a1,1,0,0,1,0-2h8a1,1,0,0,1,0,2H35v4.76l3.89,7.79A1,1,0,0,1,38,25H26a1,1,0,0,1-.89-1.45ZM31,58.24,30.77,58a11,11,0,0,0-8.45-4H7a3,3,0,0,1-3-3V15a3,3,0,0,1,3-3H17.88A14.81,14.81,0,0,0,17,17,15,15,0,0,0,31,32s0,0,0,.05ZM60,51a3,3,0,0,1-3,3H41.68a11,11,0,0,0-8.45,4l-.23.28V32s0,0,0-.05A15,15,0,0,0,47,17a14.81,14.81,0,0,0-.88-5H57a3,3,0,0,1,3,3Z"></path>
  <polygon points="34.89 20.02 28.66 20.92 27.62 23 36.38 23 34.89 20.02"></polygon>
  <path d="M33.11,16.45A1,1,0,0,1,33,16V11H31v5a1,1,0,0,1-.11.45l-1.14,2.29,4.2-.6Z"></path>
</svg>
