<svg xmlns="http://www.w3.org/2000/svg" fill-rule="evenodd" stroke-linejoin="round" stroke-miterlimit="2" clip-rule="evenodd" viewBox="0 0 96 96" id="supplement">
  <rect width="96" height="96" fill="none"></rect>
  <path d="M69.008,31.529c-1.866,-2.796 -4.922,-7.374 -6.12,-9.17c-0.165,-0.246 -0.252,-0.536 -0.252,-0.832l-0,-16.527c-0,-1.193 -0.474,-2.338 -1.318,-3.182c-0.844,-0.844 -1.989,-1.318 -3.182,-1.318l-36.043,-0c-1.193,-0 -2.338,0.474 -3.182,1.318c-0.843,0.844 -1.318,1.989 -1.318,3.182c0,4.726 0,13.661 0,16.527c0,0.296 -0.087,0.586 -0.252,0.832c-1.461,2.189 -5.681,8.513 -7.142,10.701c-0.494,0.74 -0.757,1.609 -0.757,2.499l-0,55.441c-0,2.485 2.014,4.5 4.5,4.5l52.345,-0c2.486,-0 4.5,-2.015 4.5,-4.5l0,-12.771c0,-0.828 -0.672,-1.5 -1.5,-1.5c-0.828,0 -1.5,0.672 -1.5,1.5l0,12.771c0,0.828 -0.671,1.5 -1.5,1.5l-52.345,0c-0.829,-0 -1.5,-0.672 -1.5,-1.5c-0,-0 -0,-55.441 -0,-55.441c-0,-0.297 0.088,-0.587 0.252,-0.833c1.461,-2.189 5.682,-8.513 7.142,-10.701c0.494,-0.74 0.757,-1.609 0.757,-2.498l0,-16.527c0,-0.398 0.158,-0.779 0.44,-1.061c0.281,-0.281 0.663,-0.439 1.06,-0.439l36.043,-0c0.397,-0 0.779,0.158 1.06,0.439c0.282,0.282 0.44,0.663 0.44,1.061l-0,16.527c-0,0.889 0.263,1.758 0.757,2.498c1.198,1.795 4.254,6.374 6.12,9.169c0.459,0.689 1.391,0.875 2.08,0.415c0.689,-0.46 0.874,-1.392 0.415,-2.08Z"></path>
  <path d="M10.942 82.005l20.368 0c.828 0 1.5-.672 1.5-1.5 0-.828-.672-1.5-1.5-1.5l-20.368 0c-.828 0-1.5.672-1.5 1.5 0 .828.672 1.5 1.5 1.5zm46.308-43.105l-46.308 0c-.828 0-1.5.673-1.5 1.5 0 .828.672 1.5 1.5 1.5l46.308 0c.827 0 1.5-.672 1.5-1.5 0-.827-.673-1.5-1.5-1.5zM25.093 17.771l36.043 0c.827 0 1.5-.672 1.5-1.5 0-.828-.673-1.5-1.5-1.5l-36.043 0c-.827 0-1.5.672-1.5 1.5 0 .828.673 1.5 1.5 1.5zM82.743 58.152c2.443-2.443 3.815-5.756 3.815-9.211 0-3.455-1.372-6.769-3.815-9.212-.001-.001-.001-.001-.002-.001-2.443-2.444-5.756-3.816-9.211-3.816-3.455 0-6.769 1.372-9.212 3.816-7.186 7.186-17.603 17.603-24.789 24.789-2.444 2.443-3.816 5.757-3.816 9.212 0 3.455 1.372 6.768 3.816 9.211 0 .001 0 .001.001.002 2.443 2.443 5.757 3.815 9.212 3.815 3.455 0 6.768-1.372 9.211-3.815 7.187-7.187 17.603-17.603 24.79-24.79zm-2.122-2.121c-7.186 7.186-17.603 17.603-24.789 24.789-1.881 1.881-4.431 2.937-7.09 2.937-2.66 0-5.21-1.056-7.091-2.937 0 0-.001-.001-.001-.001-1.881-1.88-2.937-4.431-2.937-7.09 0-2.66 1.056-5.21 2.937-7.091 7.186-7.186 17.603-17.603 24.789-24.789 1.881-1.881 4.431-2.937 7.091-2.937 2.659 0 5.21 1.056 7.09 2.937 0 0 .001.001.001.001 1.881 1.881 2.937 4.431 2.937 7.091 0 2.659-1.056 5.209-2.937 7.09z"></path>
  <path d="M70.348 68.426l-16.303-16.304c-.586-.585-1.536-.585-2.122 0-.585.586-.585 1.536 0 2.122l16.304 16.303c.585.585 1.536.585 2.121 0 .585-.585.585-1.536 0-2.121zM23.905 49.803c-4.3 0-7.79 3.49-7.79 7.79 0 4.3 3.49 7.791 7.79 7.791 4.3 0 7.791-3.491 7.791-7.791 0-4.3-3.491-7.79-7.791-7.79zm0 3c2.644 0 4.791 2.146 4.791 4.79 0 2.644-2.147 4.791-4.791 4.791-2.644 0-4.79-2.147-4.79-4.791 0-2.644 2.146-4.79 4.79-4.79z"></path>
</svg>
