<?xml version="1.0" standalone="no"?>
<!DOCTYPE svg PUBLIC "-//W3C//DTD SVG 20010904//EN"
 "http://www.w3.org/TR/2001/REC-SVG-20010904/DTD/svg10.dtd">
<svg version="1.0" xmlns="http://www.w3.org/2000/svg"
 width="512.000000pt" height="512.000000pt" viewBox="0 0 512.000000 512.000000"
 preserveAspectRatio="xMidYMid meet">

<g transform="translate(0.000000,512.000000) scale(0.100000,-0.100000)"
fill="#000000" stroke="none">
<path d="M2471 4700 c-82 -12 -191 -44 -256 -77 -126 -64 -262 -179 -332 -280
-34 -50 -40 -54 -68 -49 -118 21 -158 26 -215 26 -380 0 -735 -273 -842 -647
-18 -62 -22 -104 -23 -210 l0 -131 -80 -31 c-341 -130 -581 -428 -640 -795
-79 -488 188 -967 633 -1134 l72 -27 25 -80 c129 -421 499 -744 953 -831 116
-23 320 -23 434 0 108 21 223 58 309 102 l66 33 83 -34 c204 -82 425 -71 621
32 l66 34 64 -21 c132 -45 230 -61 394 -67 188 -6 291 8 455 63 606 203 1007
848 916 1474 -35 235 -137 465 -289 652 l-46 57 26 98 c22 83 26 119 26 238 0
118 -4 155 -26 235 -49 189 -140 343 -284 480 -222 214 -478 312 -776 297
-104 -5 -255 -33 -286 -52 -5 -2 -22 35 -40 83 -97 272 -348 486 -641 548 -88
18 -221 25 -299 14z m264 -315 c137 -36 270 -130 341 -242 46 -71 82 -183 90
-281 8 -92 26 -132 76 -162 51 -31 101 -26 187 19 114 58 200 82 321 88 381
18 716 -253 770 -624 18 -122 4 -209 -66 -406 -25 -70 -9 -112 74 -201 88 -92
131 -153 180 -252 166 -328 134 -741 -81 -1059 -195 -288 -507 -455 -852 -455
-153 0 -257 23 -480 107 -52 19 -92 8 -165 -47 -86 -64 -148 -84 -265 -84
-113 1 -154 12 -241 70 -39 26 -70 38 -102 41 -41 4 -55 -1 -116 -38 -168
-102 -305 -142 -486 -142 -194 0 -360 49 -522 155 -200 131 -323 307 -387 557
-35 137 -56 164 -147 187 -145 38 -270 111 -367 214 -75 79 -124 162 -163 275
-26 73 -28 93 -28 220 -1 163 13 224 77 355 33 69 58 102 132 175 73 74 106
99 175 133 47 23 117 49 155 58 39 9 88 21 109 26 51 13 102 64 111 110 5 24
0 65 -14 119 -50 198 -2 390 133 532 171 179 406 232 633 141 134 -54 184 -33
258 106 83 158 200 258 350 301 77 23 231 24 310 4z"/>
<path d="M1556 3164 c-200 -48 -383 -233 -431 -435 -45 -194 12 -395 155 -540
110 -111 232 -167 385 -176 150 -9 220 25 245 118 10 37 9 50 -7 88 -29 71
-57 85 -176 91 -115 6 -169 26 -231 86 -61 59 -81 107 -81 199 0 70 4 87 30
133 57 104 127 143 275 152 116 7 140 16 172 69 46 73 17 168 -62 209 -36 18
-60 22 -130 21 -47 0 -111 -7 -144 -15z"/>
<path d="M2170 3162 c-19 -9 -45 -32 -58 -51 l-23 -35 3 -494 3 -494 37 -33
c63 -58 154 -57 212 4 37 39 45 82 46 244 l0 137 150 0 150 0 0 -164 c0 -153
1 -165 23 -197 61 -91 181 -89 251 5 21 27 21 38 21 511 0 473 0 484 -21 511
-68 91 -185 96 -248 11 -19 -25 -22 -47 -26 -200 l-5 -172 -147 -3 -148 -3 0
143 c0 79 -5 161 -11 183 -26 95 -123 140 -209 97z"/>
<path d="M3230 2453 c-19 -10 -45 -33 -57 -52 -23 -33 -23 -39 -23 -331 0
-292 0 -298 23 -331 42 -64 66 -69 310 -69 l217 0 0 -129 c0 -116 2 -131 23
-162 61 -91 181 -89 251 5 21 27 21 38 21 506 0 468 0 479 -21 506 -70 94
-190 96 -251 5 -22 -32 -23 -43 -23 -232 l0 -199 -124 0 -124 0 -4 199 c-3
183 -5 202 -24 227 -50 68 -129 91 -194 57z"/>
</g>
</svg>
