<svg xmlns="http://www.w3.org/2000/svg" viewBox="0 0 64 64" id="molecule">
  <path fill="#222" d="M54 36a5 5 0 0 0-3.76 1.71l-8.43-4.56a9.83 9.83 0 0 0 .69-3.65 10 10 0 0 0-3.34-7.5l8.14-9.66a3.74 3.74 0 0 0 1.7.41A3.79 3.79 0 1 0 45.21 9a3.75 3.75 0 0 0 .6 2l-8.27 9.83a10 10 0 0 0-10.84.49l-6.31-7.28A5.93 5.93 0 0 0 22 10a6 6 0 1 0-3.19 5.31l6.39 7.37a9.9 9.9 0 0 0-2.7 6.82 10.06 10.06 0 0 0 .08 1.24l-10.25 3A4 4 0 1 0 13 36a1.72 1.72 0 0 0 0-.32l10-2.98a10 10 0 0 0 6 6.19L27.3 48H27a6 6 0 1 0 2.26.44L31 39.38a9.08 9.08 0 0 0 1.49.12 10 10 0 0 0 8.39-4.57l8.36 4.51A5 5 0 1 0 54 36Zm-18.42-2.56a5 5 0 0 0 1.92-3.94 1 1 0 0 1 2 0 6.94 6.94 0 0 1-2.69 5.5 1 1 0 0 1-.62.22 1 1 0 0 1-.61-1.79Z"></path>
</svg>
