<svg xmlns="http://www.w3.org/2000/svg" viewBox="0 0 64 64" id="periodic-table">
  <g>
    <path d="M59 8H43V6.385a2.925 2.925 0 0 0-3.1-2.693h-4.664a3.94 3.94 0 0 0-6.472 0h-4.659A2.925 2.925 0 0 0 21 6.385V8H5a3 3 0 0 0-3 3v40a3 3 0 0 0 3 3h7v2H7a5.006 5.006 0 0 0-5 5 1 1 0 0 0 1 1h58a1 1 0 0 0 1-1 5.006 5.006 0 0 0-5-5h-5v-2h7a3 3 0 0 0 3-3V11a3 3 0 0 0-3-3ZM23 6.385c0-.327.473-.693 1.105-.693h5.317a1 1 0 0 0 .97-.755A1.58 1.58 0 0 1 32 4a1.58 1.58 0 0 1 1.608.937 1 1 0 0 0 .97.755H39.9c.632 0 1.1.366 1.1.693v5.923c0 .326-.473.692-1.1.692H24.105c-.632 0-1.105-.366-1.105-.692ZM57 58a3.006 3.006 0 0 1 2.829 2H4.171A3.006 3.006 0 0 1 7 58Zm-43-2v-2h4v2Zm6 0v-2h24v2Zm26 0v-2h4v2Zm14-5a1 1 0 0 1-1 1H5a1 1 0 0 1-1-1V11a1 1 0 0 1 1-1h16v2.308A2.925 2.925 0 0 0 24.105 15H39.9a2.925 2.925 0 0 0 3.1-2.692V10h16a1 1 0 0 1 1 1Z"></path>
    <path d="M27 10h6a1 1 0 0 0 0-2h-6a1 1 0 0 0 0 2zm27 5h-4a3 3 0 0 0-3 3v5h-5a3 3 0 0 0-3 3v5H25v-5a3 3 0 0 0-3-3h-5v-5a3 3 0 0 0-3-3h-4a3 3 0 0 0-3 3v28a3 3 0 0 0 3 3h44a3 3 0 0 0 3-3V18a3 3 0 0 0-3-3zM15 47h-5a1 1 0 0 1-1-1v-5h6zm0-8H9v-6h6zm0-8H9v-6h6zm0-8H9v-5a1 1 0 0 1 1-1h4a1 1 0 0 1 1 1zm8 24h-6v-6h6zm0-8h-6v-6h6zm0-8h-6v-6h5a1 1 0 0 1 1 1zm8 16h-6v-6h6zm0-8h-6v-6h6zm8 8h-6v-6h6zm0-8h-6v-6h6zm8 8h-6v-6h6zm0-8h-6v-6h6zm0-8h-6v-5a1 1 0 0 1 1-1h5zm8 15a1 1 0 0 1-1 1h-5v-6h6zm0-7h-6v-6h6zm0-8h-6v-6h6zm0-8h-6v-5a1 1 0 0 1 1-1h4a1 1 0 0 1 1 1z"></path>
    <circle cx="37" cy="9" r="1"></circle>
  </g>
</svg>
